JetBrainsMoro-Thin.ufo
<glyph name="dollar" format="2">
  <advance width="600"/>
  <unicode hex="0024"/>
  <outline>
    <contour>
      <point x="285" y="-140" type="line"/>
      <point x="325" y="-140" type="line"/>
      <point x="325" y="-9" type="line"/>
      <point x="441" y="-2"/>
      <point x="515" y="69"/>
      <point x="515" y="177" type="curve" smooth="yes"/>
      <point x="515" y="275"/>
      <point x="454" y="354"/>
      <point x="354" y="385" type="curve" smooth="yes"/>
      <point x="325" y="394" type="line"/>
      <point x="325" y="694" type="line"/>
      <point x="405" y="686"/>
      <point x="455" y="630"/>
      <point x="455" y="548" type="curve"/>
      <point x="505" y="548" type="line"/>
      <point x="505" y="660"/>
      <point x="436" y="732"/>
      <point x="325" y="739" type="curve"/>
      <point x="325" y="870" type="line"/>
      <point x="285" y="870" type="line"/>
      <point x="285" y="739" type="line"/>
      <point x="174" y="732"/>
      <point x="105" y="664"/>
      <point x="105" y="559" type="curve" smooth="yes"/>
      <point x="105" y="464"/>
      <point x="162" y="392"/>
      <point x="258" y="363" type="curve" smooth="yes"/>
      <point x="285" y="355" type="line"/>
      <point x="285" y="36" type="line"/>
      <point x="193" y="43"/>
      <point x="135" y="100"/>
      <point x="135" y="185" type="curve"/>
      <point x="85" y="185" type="line"/>
      <point x="85" y="72"/>
      <point x="162" y="-2"/>
      <point x="285" y="-9" type="curve"/>
    </contour>
    <contour>
      <point x="325" y="36" type="curve"/>
      <point x="325" y="343" type="line"/>
      <point x="342" y="338" type="line" smooth="yes"/>
      <point x="418" y="315"/>
      <point x="465" y="254"/>
      <point x="465" y="177" type="curve" smooth="yes"/>
      <point x="465" y="94"/>
      <point x="413" y="42"/>
    </contour>
    <contour>
      <point x="285" y="406" type="line"/>
      <point x="270" y="411" type="line" smooth="yes"/>
      <point x="199" y="433"/>
      <point x="155" y="491"/>
      <point x="155" y="563" type="curve" smooth="yes"/>
      <point x="155" y="638"/>
      <point x="205" y="687"/>
      <point x="285" y="694" type="curve"/>
    </contour>
  </outline>
</glyph>
<glyph name="parenleft" format="2">
  <advance width="600"/>
  <unicode hex="0028"/>
  <outline>
    <contour>
      <point x="485" y="-120" type="curve"/>
      <point x="485" y="-74" type="line"/>
      <point x="342" y="-38"/>
      <point x="260" y="84"/>
      <point x="260" y="260" type="curve" smooth="yes"/>
      <point x="260" y="460" type="line" smooth="yes"/>
      <point x="260" y="636"/>
      <point x="342" y="758"/>
      <point x="485" y="794" type="curve"/>
      <point x="485" y="840" type="line"/>
      <point x="310" y="797"/>
      <point x="210" y="658"/>
      <point x="210" y="460" type="curve" smooth="yes"/>
      <point x="210" y="260" type="line" smooth="yes"/>
      <point x="210" y="62"/>
      <point x="310" y="-76"/>
    </contour>
  </outline>
</glyph>
<glyph name="four" format="2">
  <advance width="600"/>
  <unicode hex="0034"/>
  <outline>
    <contour>
      <point x="420" y="0" type="line"/>
      <point x="470" y="0" type="line"/>
      <point x="470" y="420" type="line"/>
      <point x="420" y="420" type="line"/>
      <point x="420" y="215" type="line"/>
      <point x="135" y="215" type="line"/>
      <point x="135" y="257" type="line"/>
      <point x="424" y="729" type="line"/>
      <point x="371" y="729" type="line"/>
      <point x="85" y="270" type="line"/>
      <point x="85" y="170" type="line"/>
      <point x="420" y="170" type="line"/>
    </contour>
  </outline>
</glyph>
<glyph name="E" format="2">
  <advance width="600"/>
  <unicode hex="0045"/>
  <anchor x="320" y="0" name="bottom"/>
  <anchor x="440" y="0" name="ogonek"/>
  <anchor x="320" y="730" name="top"/>
  <anchor x="20" y="730" name="topleft"/>
  <outline>
    <contour>
      <point x="120" y="0" type="line"/>
      <point x="510" y="0" type="line"/>
      <point x="510" y="46" type="line"/>
      <point x="170" y="46" type="line"/>
      <point x="170" y="358" type="line"/>
      <point x="475" y="358" type="line"/>
      <point x="475" y="403" type="line"/>
      <point x="170" y="403" type="line"/>
      <point x="170" y="684" type="line"/>
      <point x="510" y="684" type="line"/>
      <point x="510" y="730" type="line"/>
      <point x="120" y="730" type="line"/>
    </contour>
  </outline>
</glyph>
<glyph name="Z" format="2">
  <advance width="600"/>
  <unicode hex="005A"/>
  <anchor x="300" y="0" name="bottom"/>
  <anchor x="300" y="365" name="center"/>
  <anchor x="300" y="730" name="top"/>
  <outline>
    <contour>
      <point x="90" y="0" type="line"/>
      <point x="510" y="0" type="line"/>
      <point x="510" y="46" type="line"/>
      <point x="141" y="46" type="line"/>
      <point x="497" y="673" type="line"/>
      <point x="497" y="730" type="line"/>
      <point x="94" y="730" type="line"/>
      <point x="94" y="684" type="line"/>
      <point x="449" y="684" type="line"/>
      <point x="90" y="50" type="line"/>
    </contour>
  </outline>
</glyph>
<glyph name="l" format="2">
  <advance width="600"/>
  <unicode hex="006C"/>
  <anchor x="320" y="0" name="bottom"/>
  <anchor x="300" y="365" name="center"/>
  <anchor x="250" y="730" name="top"/>
  <anchor x="580" y="730" name="topright"/>
  <outline>
    <contour>
      <point x="370" y="0" type="curve" smooth="yes"/>
      <point x="540" y="0" type="line"/>
      <point x="540" y="45" type="line"/>
      <point x="370" y="45" type="line" smooth="yes"/>
      <point x="311" y="45"/>
      <point x="280" y="76"/>
      <point x="280" y="135" type="curve" smooth="yes"/>
      <point x="280" y="730" type="line"/>
      <point x="50" y="730" type="line"/>
      <point x="50" y="685" type="line"/>
      <point x="230" y="685" type="line"/>
      <point x="230" y="135" type="line" smooth="yes"/>
      <point x="230" y="48"/>
      <point x="280" y="0"/>
    </contour>
  </outline>
</glyph>
<glyph name="v" format="2">
  <advance width="600"/>
  <unicode hex="0076"/>
  <anchor x="300" y="0" name="bottom"/>
  <anchor x="300" y="550" name="top"/>
  <outline>
    <contour>
      <point x="269" y="0" type="line"/>
      <point x="331" y="0" type="line"/>
      <point x="524" y="550" type="line"/>
      <point x="473" y="550" type="line"/>
      <point x="334" y="140" type="line" smooth="yes"/>
      <point x="322" y="104"/>
      <point x="307" y="60"/>
      <point x="301" y="37" type="curve"/>
      <point x="294" y="60"/>
      <point x="281" y="104"/>
      <point x="269" y="140" type="curve" smooth="yes"/>
      <point x="129" y="550" type="line"/>
      <point x="76" y="550" type="line"/>
    </contour>
  </outline>
</glyph>
<glyph name="Eth" format="2">
  <advance width="600"/>
  <unicode hex="00D0"/>
  <anchor x="300" y="0" name="bottom"/>
  <anchor x="300" y="365" name="center"/>
  <anchor x="300" y="730" name="top"/>
  <outline>
    <contour>
      <point x="10" y="351" type="line"/>
      <point x="290" y="351" type="line"/>
      <point x="290" y="395" type="line"/>
      <point x="10" y="395" type="line"/>
    </contour>
    <component base="D"/>
  </outline>
</glyph>
<glyph name="oogonek" format="2">
  <advance width="600"/>
  <unicode hex="01EB"/>
  <anchor x="320" y="550" name="horn"/>
  <anchor x="300" y="550" name="top"/>
  <outline>
    <contour>
      <point x="373" y="-195" type="curve" smooth="yes"/>
      <point x="446" y="-195" type="line"/>
      <point x="446" y="-153" type="line"/>
      <point x="382" y="-153" type="line" smooth="yes"/>
      <point x="350" y="-153"/>
      <point x="331" y="-134"/>
      <point x="331" y="-103" type="curve" smooth="yes"/>
      <point x="331" y="-75"/>
      <point x="354" y="-36"/>
      <point x="392" y="0" type="curve" smooth="yes"/>
      <point x="419" y="25" type="line"/>
      <point x="467" y="59"/>
      <point x="495" y="116"/>
      <point x="495" y="190" type="curve" smooth="yes"/>
      <point x="495" y="360" type="line" smooth="yes"/>
      <point x="495" y="481"/>
      <point x="418" y="560"/>
      <point x="300" y="560" type="curve" smooth="yes"/>
      <point x="182" y="560"/>
      <point x="105" y="481"/>
      <point x="105" y="360" type="curve" smooth="yes"/>
      <point x="105" y="190" type="line" smooth="yes"/>
      <point x="105" y="68"/>
      <point x="182" y="-10"/>
      <point x="300" y="-10" type="curve" smooth="yes"/>
      <point x="316" y="-10"/>
      <point x="332" y="-9"/>
      <point x="346" y="-6" type="curve"/>
      <point x="303" y="-47"/>
      <point x="284" y="-83"/>
      <point x="284" y="-115" type="curve" smooth="yes"/>
      <point x="284" y="-165"/>
      <point x="318" y="-195"/>
    </contour>
    <contour>
      <point x="300" y="34" type="curve" smooth="yes"/>
      <point x="208" y="34"/>
      <point x="155" y="91"/>
      <point x="155" y="190" type="curve" smooth="yes"/>
      <point x="155" y="360" type="line" smooth="yes"/>
      <point x="155" y="458"/>
      <point x="209" y="516"/>
      <point x="300" y="516" type="curve" smooth="yes"/>
      <point x="391" y="516"/>
      <point x="445" y="458"/>
      <point x="445" y="360" type="curve" smooth="yes"/>
      <point x="445" y="190" type="line" smooth="yes"/>
      <point x="445" y="91"/>
      <point x="392" y="34"/>
    </contour>
  </outline>
</glyph>
<glyph name="jdotless" format="2">
  <advance width="600"/>
  <unicode hex="0237"/>
  <anchor x="300" y="-270" name="bottom"/>
  <anchor x="394" y="550" name="top"/>
  <outline>
    <contour>
      <point x="90" y="-180" type="line"/>
      <point x="230" y="-180" type="line" smooth="yes"/>
      <point x="352" y="-180"/>
      <point x="424" y="-109"/>
      <point x="424" y="10" type="curve" smooth="yes"/>
      <point x="424" y="550" type="line"/>
      <point x="110" y="550" type="line"/>
      <point x="110" y="505" type="line"/>
      <point x="374" y="505" type="line"/>
      <point x="374" y="10" type="line" smooth="yes"/>
      <point x="374" y="-84"/>
      <point x="324" y="-135"/>
      <point x="230" y="-135" type="curve" smooth="yes"/>
      <point x="90" y="-135" type="line"/>
    </contour>
  </outline>
</glyph>
<glyph name="macroncomb" format="2">
  <unicode hex="0304"/>
  <anchor x="-300" y="550" name="_top"/>
  <anchor x="-300" y="727" name="top"/>
  <outline>
    <contour>
      <point x="-440" y="684" type="line"/>
      <point x="-160" y="684" type="line"/>
      <point x="-160" y="727" type="line"/>
      <point x="-440" y="727" type="line"/>
    </contour>
  </outline>
</glyph>
<glyph name="hungarumlautcomb" format="2">
  <unicode hex="030B"/>
  <anchor x="-300" y="550" name="_top"/>
  <anchor x="-263" y="785" name="top"/>
  <outline>
    <contour>
      <point x="-265" y="645" type="line"/>
      <point x="-213" y="645" type="line"/>
      <point x="-101" y="785" type="line"/>
      <point x="-159" y="785" type="line"/>
    </contour>
    <contour>
      <point x="-424" y="645" type="line"/>
      <point x="-372" y="645" type="line"/>
      <point x="-260" y="785" type="line"/>
      <point x="-318" y="785" type="line"/>
    </contour>
  </outline>
</glyph>
<glyph name="dblgravecomb" format="2">
  <unicode hex="030F"/>
  <anchor x="-300" y="550" name="_top"/>
  <anchor x="-338" y="785" name="top"/>
  <outline>
    <contour>
      <point x="-335" y="645" type="line"/>
      <point x="-441" y="785" type="line"/>
      <point x="-499" y="785" type="line"/>
      <point x="-387" y="645" type="line"/>
    </contour>
    <contour>
      <point x="-176" y="645" type="line"/>
      <point x="-282" y="785" type="line"/>
      <point x="-340" y="785" type="line"/>
      <point x="-228" y="645" type="line"/>
    </contour>
  </outline>
</glyph>
<glyph name="slashshortcomb" format="2">
  <unicode hex="0337"/>
  <anchor x="-300" y="280" name="_center"/>
  <outline>
    <contour>
      <point x="-540" y="-30" type="line"/>
      <point x="-491" y="-30" type="line"/>
      <point x="-60" y="590" type="line"/>
      <point x="-109" y="590" type="line"/>
    </contour>
  </outline>
</glyph>
<glyph name="Xi" format="2">
  <advance width="600"/>
  <unicode hex="039E"/>
  <outline>
    <contour>
      <point x="85" y="680" type="line"/>
      <point x="515" y="680" type="line"/>
      <point x="515" y="730" type="line"/>
      <point x="85" y="730" type="line"/>
    </contour>
    <contour>
      <point x="85" y="0" type="line"/>
      <point x="515" y="0" type="line"/>
      <point x="515" y="50" type="line"/>
      <point x="85" y="50" type="line"/>
    </contour>
    <contour>
      <point x="125" y="345" type="line"/>
      <point x="475" y="345" type="line"/>
      <point x="475" y="395" type="line"/>
      <point x="125" y="395" type="line"/>
    </contour>
  </outline>
</glyph>
<glyph name="iota" format="2">
  <advance width="600"/>
  <unicode hex="03B9"/>
  <anchor x="300" y="550" name="top"/>
  <outline>
    <contour>
      <point x="418" y="0" type="curve" smooth="yes"/>
      <point x="540" y="0" type="line"/>
      <point x="540" y="45" type="line"/>
      <point x="418" y="45" type="line" smooth="yes"/>
      <point x="359" y="45"/>
      <point x="328" y="76"/>
      <point x="328" y="135" type="curve" smooth="yes"/>
      <point x="328" y="550" type="line"/>
      <point x="70" y="550" type="line"/>
      <point x="70" y="505" type="line"/>
      <point x="278" y="505" type="line"/>
      <point x="278" y="135" type="line" smooth="yes"/>
      <point x="278" y="48"/>
      <point x="328" y="0"/>
    </contour>
  </outline>
</glyph>
<glyph name="omega" format="2">
  <advance width="600"/>
  <unicode hex="03C9"/>
  <outline>
    <contour>
      <point x="193" y="-10" type="curve" smooth="yes"/>
      <point x="261" y="-10"/>
      <point x="303" y="38"/>
      <point x="303" y="115" type="curve"/>
      <point x="297" y="115" type="line"/>
      <point x="297" y="38"/>
      <point x="339" y="-10"/>
      <point x="407" y="-10" type="curve" smooth="yes"/>
      <point x="482" y="-10"/>
      <point x="530" y="48"/>
      <point x="530" y="140" type="curve" smooth="yes"/>
      <point x="530" y="382" type="line" smooth="yes"/>
      <point x="530" y="478"/>
      <point x="479" y="544"/>
      <point x="392" y="560" type="curve"/>
      <point x="392" y="514" type="line"/>
      <point x="448" y="497"/>
      <point x="482" y="448"/>
      <point x="482" y="382" type="curve" smooth="yes"/>
      <point x="482" y="140" type="line" smooth="yes"/>
      <point x="482" y="70"/>
      <point x="452" y="34"/>
      <point x="402" y="34" type="curve" smooth="yes"/>
      <point x="352" y="34"/>
      <point x="323" y="70"/>
      <point x="323" y="140" type="curve" smooth="yes"/>
      <point x="323" y="382" type="line"/>
      <point x="277" y="382" type="line"/>
      <point x="277" y="140" type="line" smooth="yes"/>
      <point x="277" y="70"/>
      <point x="247" y="34"/>
      <point x="197" y="34" type="curve" smooth="yes"/>
      <point x="147" y="34"/>
      <point x="118" y="70"/>
      <point x="118" y="140" type="curve" smooth="yes"/>
      <point x="118" y="382" type="line" smooth="yes"/>
      <point x="118" y="448"/>
      <point x="152" y="497"/>
      <point x="208" y="514" type="curve"/>
      <point x="208" y="560" type="line"/>
      <point x="121" y="544"/>
      <point x="70" y="478"/>
      <point x="70" y="382" type="curve" smooth="yes"/>
      <point x="70" y="140" type="line" smooth="yes"/>
      <point x="70" y="48"/>
      <point x="118" y="-10"/>
    </contour>
  </outline>
</glyph>
<glyph name="piSymbol" format="2">
  <advance width="600"/>
  <unicode hex="03D6"/>
  <outline>
    <contour>
      <point x="193" y="-10" type="curve" smooth="yes"/>
      <point x="250" y="-10"/>
      <point x="289" y="24"/>
      <point x="300" y="81" type="curve"/>
      <point x="311" y="24"/>
      <point x="350" y="-10"/>
      <point x="407" y="-10" type="curve" smooth="yes"/>
      <point x="482" y="-10"/>
      <point x="530" y="48"/>
      <point x="530" y="140" type="curve" smooth="yes"/>
      <point x="530" y="393" type="line" smooth="yes"/>
      <point x="530" y="471"/>
      <point x="480" y="522"/>
      <point x="404" y="522" type="curve"/>
      <point x="450" y="502" type="line"/>
      <point x="450" y="505" type="line"/>
      <point x="580" y="505" type="line"/>
      <point x="580" y="550" type="line"/>
      <point x="20" y="550" type="line"/>
      <point x="20" y="505" type="line"/>
      <point x="149" y="505" type="line"/>
      <point x="149" y="502" type="line"/>
      <point x="196" y="522" type="line"/>
      <point x="120" y="522"/>
      <point x="70" y="471"/>
      <point x="70" y="393" type="curve" smooth="yes"/>
      <point x="70" y="140" type="line" smooth="yes"/>
      <point x="70" y="48"/>
      <point x="118" y="-10"/>
    </contour>
    <contour>
      <point x="197" y="34" type="curve" smooth="yes"/>
      <point x="147" y="34"/>
      <point x="118" y="70"/>
      <point x="118" y="140" type="curve" smooth="yes"/>
      <point x="118" y="399" type="line" smooth="yes"/>
      <point x="118" y="469"/>
      <point x="147" y="505"/>
      <point x="197" y="505" type="curve" smooth="yes"/>
      <point x="402" y="505" type="line" smooth="yes"/>
      <point x="452" y="505"/>
      <point x="482" y="469"/>
      <point x="482" y="399" type="curve" smooth="yes"/>
      <point x="482" y="140" type="line" smooth="yes"/>
      <point x="482" y="70"/>
      <point x="452" y="34"/>
      <point x="402" y="34" type="curve" smooth="yes"/>
      <point x="352" y="34"/>
      <point x="323" y="70"/>
      <point x="323" y="140" type="curve" smooth="yes"/>
      <point x="323" y="382" type="line"/>
      <point x="277" y="382" type="line"/>
      <point x="277" y="140" type="line" smooth="yes"/>
      <point x="277" y="70"/>
      <point x="247" y="34"/>
    </contour>
  </outline>
</glyph>
<glyph name="Be-cy" format="2">
  <advance width="600"/>
  <unicode hex="0411"/>
  <outline>
    <contour>
      <point x="110" y="0" type="line"/>
      <point x="306" y="0" type="line" smooth="yes"/>
      <point x="434" y="0"/>
      <point x="516" y="80.009"/>
      <point x="516" y="204" type="curve" smooth="yes"/>
      <point x="516" y="327"/>
      <point x="434" y="405"/>
      <point x="306" y="405" type="curve" smooth="yes"/>
      <point x="160" y="405" type="line"/>
      <point x="160" y="685" type="line"/>
      <point x="486" y="685" type="line"/>
      <point x="486" y="730" type="line"/>
      <point x="110" y="730" type="line"/>
    </contour>
    <contour>
      <point x="160" y="45" type="line"/>
      <point x="160" y="360" type="line"/>
      <point x="306" y="360" type="line" smooth="yes"/>
      <point x="406" y="360"/>
      <point x="466" y="301"/>
      <point x="466" y="203" type="curve" smooth="yes"/>
      <point x="466" y="104"/>
      <point x="406" y="45"/>
      <point x="306" y="45" type="curve" smooth="yes"/>
    </contour>
  </outline>
</glyph>
<glyph name="ve-cy" format="2">
  <advance width="600"/>
  <unicode hex="0432"/>
  <outline>
    <contour>
      <point x="110" y="0" type="line"/>
      <point x="338" y="0" type="line" smooth="yes"/>
      <point x="445" y="0"/>
      <point x="513" y="59"/>
      <point x="513" y="153" type="curve" smooth="yes"/>
      <point x="513" y="233"/>
      <point x="464" y="285"/>
      <point x="390" y="288" type="curve"/>
      <point x="390" y="291" type="line"/>
      <point x="455" y="297"/>
      <point x="496" y="344"/>
      <point x="496" y="412" type="curve" smooth="yes"/>
      <point x="496" y="497"/>
      <point x="432" y="550"/>
      <point x="331" y="550" type="curve" smooth="yes"/>
      <point x="110" y="550" type="line"/>
    </contour>
    <contour>
      <point x="160" y="45" type="line"/>
      <point x="160" y="263" type="line"/>
      <point x="338" y="263" type="line" smooth="yes"/>
      <point x="413" y="263"/>
      <point x="463" y="219"/>
      <point x="463" y="154" type="curve" smooth="yes"/>
      <point x="463" y="89"/>
      <point x="413" y="45"/>
      <point x="338" y="45" type="curve" smooth="yes"/>
    </contour>
    <contour>
      <point x="160" y="308" type="line"/>
      <point x="160" y="505" type="line"/>
      <point x="331" y="505" type="line" smooth="yes"/>
      <point x="400" y="505"/>
      <point x="446" y="465"/>
      <point x="446" y="406" type="curve" smooth="yes"/>
      <point x="446" y="347"/>
      <point x="400" y="308"/>
      <point x="331" y="308" type="curve" smooth="yes"/>
    </contour>
  </outline>
</glyph>
<glyph name="tshe-cy" format="2">
  <advance width="600"/>
  <unicode hex="045B"/>
  <outline>
    <contour>
      <point x="9" y="586" type="line"/>
      <point x="110" y="586" type="line"/>
      <point x="110" y="0" type="line"/>
      <point x="160" y="0" type="line"/>
      <point x="160" y="300" type="line" smooth="yes"/>
      <point x="160" y="397"/>
      <point x="215" y="457"/>
      <point x="303" y="457" type="curve" smooth="yes"/>
      <point x="389" y="457"/>
      <point x="442" y="399"/>
      <point x="442" y="300" type="curve" smooth="yes"/>
      <point x="442" y="0" type="line"/>
      <point x="492" y="0" type="line"/>
      <point x="492" y="307" type="line" smooth="yes"/>
      <point x="492" y="425"/>
      <point x="421" y="500"/>
      <point x="313" y="500" type="curve" smooth="yes"/>
      <point x="240" y="500"/>
      <point x="186" y="466"/>
      <point x="164" y="410" type="curve"/>
      <point x="160" y="410" type="line"/>
      <point x="160" y="490" type="line"/>
      <point x="160" y="586" type="line"/>
      <point x="339" y="586" type="line"/>
      <point x="339" y="631" type="line"/>
      <point x="160" y="631" type="line"/>
      <point x="160" y="730" type="line"/>
      <point x="110" y="730" type="line"/>
      <point x="110" y="631" type="line"/>
      <point x="9" y="631" type="line"/>
    </contour>
  </outline>
</glyph>
<glyph name="Gheupturn-cy" format="2">
  <advance width="600"/>
  <unicode hex="0490"/>
  <outline>
    <contour>
      <point x="140" y="0" type="line"/>
      <point x="190" y="0" type="line"/>
      <point x="190" y="685" type="line"/>
      <point x="545" y="685" type="line"/>
      <point x="545" y="825" type="line"/>
      <point x="495" y="825" type="line"/>
      <point x="495" y="730" type="line"/>
      <point x="140" y="730" type="line"/>
    </contour>
  </outline>
</glyph>
<glyph name="kadescender-cy" format="2">
  <advance width="600"/>
  <unicode hex="049B"/>
  <outline>
    <contour>
      <point x="110" y="0" type="line"/>
      <point x="160" y="0" type="line"/>
      <point x="160" y="264" type="line"/>
      <point x="292" y="264" type="line"/>
      <point x="468" y="0" type="line"/>
      <point x="528" y="0" type="line"/>
      <point x="339" y="289" type="line"/>
      <point x="524" y="550" type="line"/>
      <point x="464" y="550" type="line"/>
      <point x="292" y="309" type="line"/>
      <point x="160" y="309" type="line"/>
      <point x="160" y="550" type="line"/>
      <point x="110" y="550" type="line"/>
    </contour>
    <contour>
      <point x="495" y="-140" type="line"/>
      <point x="545" y="-140" type="line"/>
      <point x="545" y="45" type="line"/>
      <point x="495" y="45" type="line"/>
    </contour>
  </outline>
</glyph>
<glyph name="chedescender-cy" format="2">
  <advance width="600"/>
  <unicode hex="04B7"/>
  <outline>
    <contour>
      <point x="480" y="-140" type="line"/>
      <point x="530" y="-140" type="line"/>
      <point x="530" y="45" type="line"/>
      <point x="480" y="45" type="line"/>
    </contour>
    <component base="che-cy" xOffset="-3"/>
  </outline>
</glyph>
<glyph name="bitcoin" format="2">
  <advance width="600"/>
  <unicode hex="20BF"/>
  <outline>
    <contour>
      <point x="192" y="-140" type="line"/>
      <point x="230" y="-140" type="line"/>
      <point x="230" y="0" type="line"/>
      <point x="310" y="0" type="line"/>
      <point x="310" y="-140" type="line"/>
      <point x="348" y="-140" type="line"/>
      <point x="348" y="4" type="line"/>
      <point x="452" y="20"/>
      <point x="516" y="93"/>
      <point x="516" y="200" type="curve" smooth="yes"/>
      <point x="516" y="294"/>
      <point x="467" y="358"/>
      <point x="385" y="376" type="curve"/>
      <point x="456" y="394"/>
      <point x="498" y="456"/>
      <point x="498" y="542" type="curve" smooth="yes"/>
      <point x="498" y="639"/>
      <point x="440" y="708"/>
      <point x="348" y="725" type="curve"/>
      <point x="348" y="871" type="line"/>
      <point x="310" y="871" type="line"/>
      <point x="310" y="730" type="line"/>
      <point x="230" y="730" type="line"/>
      <point x="230" y="871" type="line"/>
      <point x="192" y="871" type="line"/>
      <point x="192" y="730" type="line"/>
      <point x="110" y="730" type="line"/>
      <point x="110" y="0" type="line"/>
      <point x="192" y="0" type="line"/>
    </contour>
    <contour>
      <point x="160" y="45" type="line"/>
      <point x="160" y="353" type="line"/>
      <point x="301" y="353" type="line" smooth="yes"/>
      <point x="403" y="353"/>
      <point x="466" y="294"/>
      <point x="466" y="199" type="curve" smooth="yes"/>
      <point x="466" y="104"/>
      <point x="403" y="45"/>
      <point x="301" y="45" type="curve" smooth="yes"/>
    </contour>
    <contour>
      <point x="160" y="398" type="line"/>
      <point x="160" y="685" type="line"/>
      <point x="298" y="685" type="line" smooth="yes"/>
      <point x="391" y="685"/>
      <point x="448" y="630"/>
      <point x="448" y="541" type="curve" smooth="yes"/>
      <point x="448" y="452"/>
      <point x="392" y="398"/>
      <point x="298" y="398" type="curve" smooth="yes"/>
    </contour>
  </outline>
</glyph>
<glyph name="ZdoubleStruck" format="2">
  <advance width="600"/>
  <unicode hex="2124"/>
  <outline>
    <contour>
      <point x="91" y="0" type="line"/>
      <point x="509" y="0" type="line"/>
      <point x="509" y="46" type="line"/>
      <point x="244" y="46" type="line"/>
      <point x="495" y="680" type="line"/>
      <point x="495" y="730" type="line"/>
      <point x="95" y="730" type="line"/>
      <point x="95" y="684" type="line"/>
      <point x="342" y="684" type="line"/>
      <point x="91" y="50" type="line"/>
    </contour>
    <contour>
      <point x="199" y="46" type="line"/>
      <point x="134" y="46" type="line"/>
      <point x="387" y="684" type="line"/>
      <point x="452" y="684" type="line"/>
    </contour>
  </outline>
</glyph>
<glyph name="upWhiteArrow" format="2">
  <advance width="600"/>
  <unicode hex="21E7"/>
  <outline>
    <contour>
      <point x="585" y="434" type="line"/>
      <point x="300" y="755" type="line"/>
      <point x="15" y="434" type="line"/>
      <point x="143" y="434" type="line"/>
      <point x="143" y="31" type="line" smooth="yes"/>
      <point x="143" y="14"/>
      <point x="157" y="0"/>
      <point x="174" y="0" type="curve" smooth="yes"/>
      <point x="424" y="0" type="line" smooth="yes"/>
      <point x="441" y="0"/>
      <point x="455" y="14"/>
      <point x="455" y="31" type="curve" smooth="yes"/>
      <point x="455" y="434" type="line"/>
    </contour>
    <contour>
      <point x="496" y="468" type="line"/>
      <point x="410" y="468" type="line"/>
      <point x="410" y="40" type="line"/>
      <point x="188" y="40" type="line"/>
      <point x="188" y="468" type="line"/>
      <point x="104" y="468" type="line"/>
      <point x="300" y="695" type="line"/>
    </contour>
  </outline>
</glyph>
<glyph name="theredoesnotexist" format="2">
  <advance width="600"/>
  <unicode hex="2204"/>
  <outline>
    <contour>
      <point x="80" y="-110" type="line"/>
      <point x="126" y="-110" type="line"/>
      <point x="471" y="830" type="line"/>
      <point x="425" y="830" type="line"/>
    </contour>
    <component base="existential"/>
  </outline>
</glyph>
<glyph name="succeeds" format="2">
  <advance width="600"/>
  <unicode hex="227B"/>
  <outline>
    <contour>
      <point x="90" y="55" type="curve"/>
      <point x="135" y="55" type="line"/>
      <point x="154" y="204"/>
      <point x="313" y="300"/>
      <point x="540" y="300" type="curve"/>
      <point x="540" y="360" type="line"/>
      <point x="313" y="360"/>
      <point x="154" y="454"/>
      <point x="135" y="600" type="curve"/>
      <point x="90" y="600" type="line"/>
      <point x="108" y="441"/>
      <point x="248" y="335"/>
      <point x="447" y="331" type="curve"/>
      <point x="447" y="333" type="line"/>
      <point x="248" y="327"/>
      <point x="108" y="218"/>
    </contour>
  </outline>
</glyph>
<glyph name="squarecap" format="2">
  <advance width="600"/>
  <unicode hex="2293"/>
  <outline>
    <contour>
      <point x="70" y="0" type="line"/>
      <point x="120" y="0" type="line"/>
      <point x="120" y="455" type="line"/>
      <point x="480" y="455" type="line"/>
      <point x="480" y="0" type="line"/>
      <point x="530" y="0" type="line"/>
      <point x="530" y="500" type="line"/>
      <point x="70" y="500" type="line"/>
    </contour>
  </outline>
</glyph>
<glyph name="asteriskoperator.circled" format="2">
  <advance width="600"/>
  <unicode hex="229B"/>
  <outline>
    <contour>
      <point x="300" y="20" type="curve" smooth="yes"/>
      <point x="477" y="20"/>
      <point x="610" y="153"/>
      <point x="610" y="330" type="curve" smooth="yes"/>
      <point x="610" y="507"/>
      <point x="477" y="640"/>
      <point x="300" y="640" type="curve" smooth="yes"/>
      <point x="123" y="640"/>
      <point x="-10" y="507"/>
      <point x="-10" y="330" type="curve" smooth="yes"/>
      <point x="-10" y="153"/>
      <point x="123" y="20"/>
    </contour>
    <contour>
      <point x="300" y="70" type="curve" smooth="yes"/>
      <point x="152" y="70"/>
      <point x="40" y="182"/>
      <point x="40" y="330" type="curve" smooth="yes"/>
      <point x="40" y="478"/>
      <point x="152" y="590"/>
      <point x="300" y="590" type="curve" smooth="yes"/>
      <point x="448" y="590"/>
      <point x="560" y="478"/>
      <point x="560" y="330" type="curve" smooth="yes"/>
      <point x="560" y="182"/>
      <point x="448" y="70"/>
    </contour>
    <contour>
      <point x="167" y="93" type="line"/>
      <point x="239" y="196" type="line" smooth="yes"/>
      <point x="276" y="249"/>
      <point x="286" y="276"/>
      <point x="294" y="299" type="curve"/>
      <point x="305" y="299" type="line"/>
      <point x="314" y="275"/>
      <point x="324" y="249"/>
      <point x="360" y="197" type="curve" smooth="yes"/>
      <point x="433" y="92" type="line"/>
      <point x="477" y="123" type="line"/>
      <point x="404" y="227" type="line" smooth="yes"/>
      <point x="368" y="278"/>
      <point x="350" y="293"/>
      <point x="327" y="312" type="curve"/>
      <point x="332" y="326" type="line"/>
      <point x="355" y="328"/>
      <point x="383" y="331"/>
      <point x="437" y="351" type="curve" smooth="yes"/>
      <point x="558" y="395" type="line"/>
      <point x="540" y="445" type="line"/>
      <point x="417" y="402" type="line" smooth="yes"/>
      <point x="365" y="384"/>
      <point x="340" y="366"/>
      <point x="323" y="353" type="curve"/>
      <point x="314" y="360" type="line"/>
      <point x="321" y="384"/>
      <point x="327" y="410"/>
      <point x="327" y="469" type="curve" smooth="yes"/>
      <point x="327" y="599" type="line"/>
      <point x="273" y="599" type="line"/>
      <point x="273" y="469" type="line" smooth="yes"/>
      <point x="273" y="410"/>
      <point x="279" y="384"/>
      <point x="286" y="360" type="curve"/>
      <point x="277" y="354" type="line"/>
      <point x="258" y="368"/>
      <point x="235" y="383"/>
      <point x="180" y="403" type="curve" smooth="yes"/>
      <point x="61" y="446" type="line"/>
      <point x="42" y="396" type="line"/>
      <point x="162" y="352" type="line" smooth="yes"/>
      <point x="216" y="332"/>
      <point x="240" y="330"/>
      <point x="267" y="328" type="curve"/>
      <point x="272" y="313" type="line"/>
      <point x="255" y="299"/>
      <point x="232" y="279"/>
      <point x="195" y="227" type="curve" smooth="yes"/>
      <point x="122" y="124" type="line"/>
    </contour>
  </outline>
</glyph>
<glyph name="tackdown" format="2">
  <advance width="600"/>
  <unicode hex="22A4"/>
  <outline>
    <contour>
      <point x="275" y="0" type="line"/>
      <point x="325" y="0" type="line"/>
      <point x="325" y="600" type="line"/>
      <point x="275" y="600" type="line"/>
    </contour>
    <contour>
      <point x="0" y="555" type="line"/>
      <point x="600" y="555" type="line"/>
      <point x="600" y="600" type="line"/>
      <point x="0" y="600" type="line"/>
    </contour>
  </outline>
</glyph>
<glyph name="multimap" format="2">
  <advance width="600"/>
  <unicode hex="22B8"/>
  <outline>
    <contour>
      <point x="495" y="235" type="curve" smooth="yes"/>
      <point x="549" y="235"/>
      <point x="590" y="276"/>
      <point x="590" y="330" type="curve" smooth="yes"/>
      <point x="590" y="384"/>
      <point x="549" y="425"/>
      <point x="495" y="425" type="curve" smooth="yes"/>
      <point x="441" y="425"/>
      <point x="400" y="384"/>
      <point x="400" y="330" type="curve" smooth="yes"/>
      <point x="400" y="276"/>
      <point x="441" y="235"/>
    </contour>
    <contour>
      <point x="20" y="309" type="line"/>
      <point x="425" y="309" type="line"/>
      <point x="425" y="351" type="line"/>
      <point x="20" y="351" type="line"/>
    </contour>
    <contour>
      <point x="495" y="275" type="curve" smooth="yes"/>
      <point x="463" y="275"/>
      <point x="440" y="298"/>
      <point x="440" y="330" type="curve" smooth="yes"/>
      <point x="440" y="362"/>
      <point x="463" y="385"/>
      <point x="495" y="385" type="curve" smooth="yes"/>
      <point x="527" y="385"/>
      <point x="550" y="362"/>
      <point x="550" y="330" type="curve" smooth="yes"/>
      <point x="550" y="298"/>
      <point x="527" y="275"/>
    </contour>
  </outline>
</glyph>
<glyph name="downrightdiagonalellipsis" format="2">
  <advance width="600"/>
  <unicode hex="22F1"/>
  <outline>
    <contour>
      <point x="49" y="527" type="curve" smooth="yes"/>
      <point x="84" y="527"/>
      <point x="107" y="550"/>
      <point x="107" y="585" type="curve" smooth="yes"/>
      <point x="107" y="620"/>
      <point x="84" y="643"/>
      <point x="49" y="643" type="curve" smooth="yes"/>
      <point x="13" y="643"/>
      <point x="-10" y="620"/>
      <point x="-10" y="585" type="curve" smooth="yes"/>
      <point x="-10" y="550"/>
      <point x="13" y="527"/>
    </contour>
    <contour>
      <point x="301" y="276" type="curve" smooth="yes"/>
      <point x="336" y="276"/>
      <point x="359" y="299"/>
      <point x="359" y="334" type="curve" smooth="yes"/>
      <point x="359" y="369"/>
      <point x="336" y="392"/>
      <point x="301" y="392" type="curve" smooth="yes"/>
      <point x="265" y="392"/>
      <point x="242" y="369"/>
      <point x="242" y="334" type="curve" smooth="yes"/>
      <point x="242" y="299"/>
      <point x="265" y="276"/>
    </contour>
    <contour>
      <point x="552" y="25" type="curve" smooth="yes"/>
      <point x="587" y="25"/>
      <point x="610" y="48"/>
      <point x="610" y="83" type="curve" smooth="yes"/>
      <point x="610" y="118"/>
      <point x="587" y="141"/>
      <point x="552" y="141" type="curve" smooth="yes"/>
      <point x="516" y="141"/>
      <point x="493" y="118"/>
      <point x="493" y="83" type="curve" smooth="yes"/>
      <point x="493" y="48"/>
      <point x="516" y="25"/>
    </contour>
  </outline>
</glyph>
<glyph name="parenleftextension" format="2">
  <advance width="600"/>
  <unicode hex="239C"/>
  <outline>
    <contour>
      <point x="275" y="-300" type="line"/>
      <point x="325" y="-300" type="line"/>
      <point x="325" y="1020" type="line"/>
      <point x="275" y="1020" type="line"/>
    </contour>
  </outline>
</glyph>
<glyph name="leftsquarebracketuppercorner" format="2">
  <advance width="600"/>
  <unicode hex="23A1"/>
  <outline>
    <contour>
      <point x="275" y="-300" type="line"/>
      <point x="325" y="-300" type="line"/>
      <point x="325" y="785" type="line"/>
      <point x="500" y="785" type="line"/>
      <point x="500" y="830" type="line"/>
      <point x="275" y="830" type="line"/>
    </contour>
  </outline>
</glyph>
<glyph name="boxLightTripleDashVertical" format="2">
  <advance width="600"/>
  <unicode hex="2506"/>
  <outline>
    <contour>
      <point x="250" y="600" type="line"/>
      <point x="350" y="600" type="line"/>
      <point x="350" y="938" type="line"/>
      <point x="250" y="938" type="line"/>
    </contour>
    <contour>
      <point x="250" y="-219" type="line"/>
      <point x="350" y="-219" type="line"/>
      <point x="350" y="118" type="line"/>
      <point x="250" y="118" type="line"/>
    </contour>
    <contour>
      <point x="250" y="193" type="line"/>
      <point x="350" y="193" type="line"/>
      <point x="350" y="527" type="line"/>
      <point x="250" y="527" type="line"/>
    </contour>
  </outline>
</glyph>
<glyph name="boxHeavyQuadrupleDashVertical" format="2">
  <advance width="600"/>
  <unicode hex="250B"/>
  <outline>
    <contour>
      <point x="200" y="720" type="line"/>
      <point x="400" y="720" type="line"/>
      <point x="400" y="935" type="line"/>
      <point x="200" y="935" type="line"/>
    </contour>
    <contour>
      <point x="200" y="-195" type="line"/>
      <point x="400" y="-195" type="line"/>
      <point x="400" y="20" type="line"/>
      <point x="200" y="20" type="line"/>
    </contour>
    <contour>
      <point x="200" y="110" type="line"/>
      <point x="400" y="110" type="line"/>
      <point x="400" y="325" type="line"/>
      <point x="200" y="325" type="line"/>
    </contour>
    <contour>
      <point x="200" y="415" type="line"/>
      <point x="400" y="415" type="line"/>
      <point x="400" y="630" type="line"/>
      <point x="200" y="630" type="line"/>
    </contour>
  </outline>
</glyph>
<glyph name="lowerRightBlock" format="2">
  <advance width="600"/>
  <unicode hex="2597"/>
  <outline>
    <contour>
      <point x="300" y="-300" type="line"/>
      <point x="600" y="-300" type="line"/>
      <point x="600" y="360" type="line"/>
      <point x="300" y="360" type="line"/>
    </contour>
  </outline>
</glyph>
<glyph name="verticalBisectingLineWhiteSquare" format="2">
  <advance width="600"/>
  <unicode hex="25EB"/>
  <outline>
    <contour>
      <point x="0" y="60" type="line"/>
      <point x="600" y="60" type="line"/>
      <point x="600" y="660" type="line"/>
      <point x="0" y="660" type="line"/>
    </contour>
    <contour>
      <point x="50" y="110" type="line"/>
      <point x="50" y="610" type="line"/>
      <point x="550" y="610" type="line"/>
      <point x="550" y="110" type="line"/>
    </contour>
    <contour>
      <point x="275" y="70" type="line"/>
      <point x="325" y="70" type="line"/>
      <point x="325" y="650" type="line"/>
      <point x="275" y="650" type="line"/>
    </contour>
  </outline>
</glyph>
<glyph name="multiplicationX" format="2">
  <advance width="600"/>
  <unicode hex="2715"/>
  <outline>
    <contour>
      <point x="111" y="113" type="line"/>
      <point x="298" y="300" type="line"/>
      <point x="487" y="111" type="line"/>
      <point x="521" y="145" type="line"/>
      <point x="332" y="334" type="line"/>
      <point x="521" y="523" type="line"/>
      <point x="489" y="555" type="line"/>
      <point x="300" y="366" type="line"/>
      <point x="111" y="555" type="line"/>
      <point x="77" y="521" type="line"/>
      <point x="266" y="332" type="line"/>
      <point x="79" y="145" type="line"/>
    </contour>
  </outline>
</glyph>
<glyph name="ballotX" format="2">
  <advance width="600"/>
  <unicode hex="2717"/>
  <outline>
    <contour>
      <point x="75" y="103" type="line"/>
      <point x="299" y="327" type="line"/>
      <point x="524" y="102" type="line"/>
      <point x="558" y="136" type="line"/>
      <point x="333" y="361" type="line"/>
      <point x="557" y="585" type="line"/>
      <point x="525" y="617" type="line"/>
      <point x="301" y="393" type="line"/>
      <point x="76" y="618" type="line"/>
      <point x="42" y="584" type="line"/>
      <point x="267" y="359" type="line"/>
      <point x="43" y="135" type="line"/>
    </contour>
  </outline>
</glyph>
<glyph name="znotationleftimagebracket" format="2">
  <advance width="600"/>
  <unicode hex="2987"/>
  <outline>
    <contour>
      <point x="485" y="-120" type="curve"/>
      <point x="485" y="840" type="line"/>
      <point x="294" y="792"/>
      <point x="185" y="653"/>
      <point x="185" y="460" type="curve" smooth="yes"/>
      <point x="185" y="260" type="line" smooth="yes"/>
      <point x="185" y="67"/>
      <point x="294" y="-72"/>
    </contour>
    <contour>
      <point x="435" y="-54" type="line"/>
      <point x="307" y="-3"/>
      <point x="235" y="109"/>
      <point x="235" y="260" type="curve" smooth="yes"/>
      <point x="235" y="460" type="line" smooth="yes"/>
      <point x="235" y="612"/>
      <point x="307" y="724"/>
      <point x="435" y="774" type="curve"/>
    </contour>
  </outline>
</glyph>
<glyph name="M.half" format="2">
  <advance width="400"/>
  <outline>
    <contour>
      <point x="40" y="0" type="line"/>
      <point x="85" y="0" type="line"/>
      <point x="85" y="95" type="line" smooth="yes"/>
      <point x="85" y="198"/>
      <point x="85" y="252"/>
      <point x="74" y="303" type="curve"/>
      <point x="180" y="96" type="line"/>
      <point x="219" y="96" type="line"/>
      <point x="326" y="306" type="line"/>
      <point x="316" y="255"/>
      <point x="316" y="185"/>
      <point x="316" y="95" type="curve" smooth="yes"/>
      <point x="316" y="0" type="line"/>
      <point x="360" y="0" type="line"/>
      <point x="360" y="335" type="line"/>
      <point x="300" y="335" type="line"/>
      <point x="222" y="183" type="line" smooth="yes"/>
      <point x="206" y="153"/>
      <point x="204" y="144"/>
      <point x="200" y="131" type="curve"/>
      <point x="196" y="144"/>
      <point x="193" y="153"/>
      <point x="178" y="182" type="curve" smooth="yes"/>
      <point x="101" y="335" type="line"/>
      <point x="40" y="335" type="line"/>
    </contour>
  </outline>
</glyph>
<glyph name="brevebelowcomb.case" format="2">
  <anchor x="-300" y="0" name="_bottom"/>
  <anchor x="-300" y="-237" name="bottom"/>
  <outline>
    <contour>
      <point x="-300" y="-237" type="curve" smooth="yes"/>
      <point x="-211" y="-237"/>
      <point x="-155" y="-182"/>
      <point x="-155" y="-95" type="curve"/>
      <point x="-200" y="-95" type="line"/>
      <point x="-200" y="-158"/>
      <point x="-239" y="-197"/>
      <point x="-301" y="-197" type="curve" smooth="yes"/>
      <point x="-362" y="-197"/>
      <point x="-400" y="-158"/>
      <point x="-400" y="-95" type="curve"/>
      <point x="-445" y="-95" type="line"/>
      <point x="-445" y="-182"/>
      <point x="-389" y="-237"/>
    </contour>
  </outline>
</glyph>
<glyph name="brevecomb-cy" format="2">
  <anchor x="-300" y="550" name="_top"/>
  <outline>
    <contour>
      <point x="-300" y="643" type="curve" smooth="yes"/>
      <point x="-211" y="643"/>
      <point x="-155" y="698"/>
      <point x="-155" y="785" type="curve"/>
      <point x="-200" y="785" type="line"/>
      <point x="-200" y="722"/>
      <point x="-239" y="683"/>
      <point x="-301" y="683" type="curve" smooth="yes"/>
      <point x="-362" y="683"/>
      <point x="-400" y="722"/>
      <point x="-400" y="785" type="curve"/>
      <point x="-445" y="785" type="line"/>
      <point x="-445" y="698"/>
      <point x="-389" y="643"/>
    </contour>
  </outline>
</glyph>
<glyph name="brevecomb_tildecomb" format="2">
  <anchor x="-300" y="550" name="_top"/>
  <anchor x="-300" y="925" name="top"/>
  <outline>
    <contour>
      <point x="-300" y="645" type="curve" smooth="yes"/>
      <point x="-210" y="645"/>
      <point x="-150" y="695"/>
      <point x="-150" y="770" type="curve"/>
      <point x="-195" y="770" type="line"/>
      <point x="-195" y="719"/>
      <point x="-237" y="685"/>
      <point x="-300" y="685" type="curve" smooth="yes"/>
      <point x="-363" y="685"/>
      <point x="-405" y="719"/>
      <point x="-405" y="770" type="curve"/>
      <point x="-450" y="770" type="line"/>
      <point x="-450" y="695"/>
      <point x="-390" y="645"/>
    </contour>
    <contour>
      <point x="-230" y="815" type="curve" smooth="yes"/>
      <point x="-181" y="815"/>
      <point x="-155" y="843"/>
      <point x="-155" y="895" type="curve" smooth="yes"/>
      <point x="-155" y="920" type="line"/>
      <point x="-195" y="920" type="line"/>
      <point x="-195" y="895" type="line" smooth="yes"/>
      <point x="-195" y="869"/>
      <point x="-207" y="855"/>
      <point x="-230" y="855" type="curve" smooth="yes"/>
      <point x="-280" y="855"/>
      <point x="-290" y="925"/>
      <point x="-365" y="925" type="curve" smooth="yes"/>
      <point x="-417" y="925"/>
      <point x="-445" y="897"/>
      <point x="-445" y="845" type="curve" smooth="yes"/>
      <point x="-445" y="820" type="line"/>
      <point x="-405" y="820" type="line"/>
      <point x="-405" y="845" type="line" smooth="yes"/>
      <point x="-405" y="872"/>
      <point x="-392" y="885"/>
      <point x="-365" y="885" type="curve" smooth="yes"/>
      <point x="-315" y="885"/>
      <point x="-305" y="815"/>
    </contour>
  </outline>
</glyph>
<glyph name="circumflexcomb_hookabovecomb.case" format="2">
  <anchor x="-300" y="730" name="_top"/>
  <anchor x="-256" y="1020" name="top"/>
  <outline>
    <contour>
      <point x="-165" y="880" type="line"/>
      <point x="-119" y="880" type="line"/>
      <point x="-88" y="915" type="line" smooth="yes"/>
      <point x="-73" y="932"/>
      <point x="-62" y="952"/>
      <point x="-62" y="971" type="curve" smooth="yes"/>
      <point x="-62" y="1001"/>
      <point x="-87" y="1020"/>
      <point x="-130" y="1020" type="curve" smooth="yes"/>
      <point x="-201" y="1020" type="line"/>
      <point x="-201" y="985" type="line"/>
      <point x="-127" y="985" type="line" smooth="yes"/>
      <point x="-110" y="985"/>
      <point x="-101" y="977"/>
      <point x="-101" y="966" type="curve" smooth="yes"/>
      <point x="-101" y="958"/>
      <point x="-107" y="947"/>
      <point x="-119" y="933" type="curve" smooth="yes"/>
    </contour>
    <contour>
      <point x="-450" y="780" type="line"/>
      <point x="-399" y="780" type="line"/>
      <point x="-300" y="889" type="line"/>
      <point x="-199" y="780" type="line"/>
      <point x="-150" y="780" type="line"/>
      <point x="-270" y="920" type="line"/>
      <point x="-330" y="920" type="line"/>
    </contour>
  </outline>
</glyph>
<glyph name="circumflexcomb_tildecomb.case" format="2">
  <anchor x="-300" y="730" name="_top"/>
  <anchor x="-300" y="1020" name="top"/>
  <outline>
    <contour>
      <point x="-225" y="920" type="curve" smooth="yes"/>
      <point x="-179" y="920"/>
      <point x="-150" y="949"/>
      <point x="-150" y="995" type="curve" smooth="yes"/>
      <point x="-150" y="1010" type="line"/>
      <point x="-190" y="1010" type="line"/>
      <point x="-190" y="995" type="line" smooth="yes"/>
      <point x="-190" y="972"/>
      <point x="-204" y="958"/>
      <point x="-225" y="958" type="curve" smooth="yes"/>
      <point x="-275" y="958"/>
      <point x="-295" y="1020"/>
      <point x="-370" y="1020" type="curve" smooth="yes"/>
      <point x="-419" y="1020"/>
      <point x="-450" y="991"/>
      <point x="-450" y="945" type="curve" smooth="yes"/>
      <point x="-450" y="930" type="line"/>
      <point x="-410" y="930" type="line"/>
      <point x="-410" y="945" type="line" smooth="yes"/>
      <point x="-410" y="968"/>
      <point x="-395" y="982"/>
      <point x="-370" y="982" type="curve" smooth="yes"/>
      <point x="-320" y="982"/>
      <point x="-300" y="920"/>
    </contour>
    <contour>
      <point x="-450" y="780" type="line"/>
      <point x="-399" y="780" type="line"/>
      <point x="-300" y="872" type="line"/>
      <point x="-199" y="780" type="line"/>
      <point x="-150" y="780" type="line"/>
      <point x="-270" y="901" type="line"/>
      <point x="-330" y="901" type="line"/>
    </contour>
  </outline>
</glyph>
<glyph name="colon.case" format="2">
  <advance width="600"/>
  <outline>
    <contour>
      <point x="300" y="496" type="curve" smooth="yes"/>
      <point x="344" y="496"/>
      <point x="373" y="525"/>
      <point x="373" y="568" type="curve" smooth="yes"/>
      <point x="373" y="611"/>
      <point x="344" y="640"/>
      <point x="300" y="640" type="curve" smooth="yes"/>
      <point x="256" y="640"/>
      <point x="227" y="611"/>
      <point x="227" y="568" type="curve" smooth="yes"/>
      <point x="227" y="525"/>
      <point x="256" y="496"/>
    </contour>
    <contour>
      <point x="300" y="70" type="curve" smooth="yes"/>
      <point x="344" y="70"/>
      <point x="373" y="99"/>
      <point x="373" y="142" type="curve" smooth="yes"/>
      <point x="373" y="185"/>
      <point x="344" y="214"/>
      <point x="300" y="214" type="curve" smooth="yes"/>
      <point x="256" y="214"/>
      <point x="227" y="185"/>
      <point x="227" y="142" type="curve" smooth="yes"/>
      <point x="227" y="99"/>
      <point x="256" y="70"/>
    </contour>
  </outline>
</glyph>
<glyph name="gravecomb.case" format="2">
  <anchor x="-290" y="730" name="_top"/>
  <anchor x="-336" y="950" name="top"/>
  <outline>
    <contour>
      <point x="-307" y="810" type="line"/>
      <point x="-252" y="810" type="line"/>
      <point x="-358" y="950" type="line"/>
      <point x="-419" y="950" type="line"/>
    </contour>
  </outline>
</glyph>
<glyph name="horncomb.case" format="2">
  <anchor x="-320" y="730" name="_horn"/>
  <anchor x="-260" y="730" name="_topright"/>
  <anchor x="-80" y="840" name="topright"/>
  <outline>
    <contour>
      <point x="-240" y="695" type="line"/>
      <point x="-185" y="695" type="line" smooth="yes"/>
      <point x="-134" y="695"/>
      <point x="-100" y="729"/>
      <point x="-100" y="780" type="curve" smooth="yes"/>
      <point x="-100" y="840" type="line"/>
      <point x="-140" y="840" type="line"/>
      <point x="-140" y="780" type="line" smooth="yes"/>
      <point x="-140" y="750"/>
      <point x="-158" y="730"/>
      <point x="-185" y="730" type="curve" smooth="yes"/>
      <point x="-240" y="730" type="line"/>
    </contour>
  </outline>
</glyph>
<glyph name="hyphen_greater_greater.liga" format="2">
  <advance width="600"/>
  <outline>
    <contour>
      <point x="-69" y="35" type="line"/>
      <point x="-10" y="35" type="line"/>
      <point x="235" y="331" type="line"/>
      <point x="-9" y="625" type="line"/>
      <point x="-69" y="625" type="line"/>
      <point x="125" y="389" type="line" smooth="yes"/>
      <point x="137" y="374"/>
      <point x="147" y="362"/>
      <point x="156" y="353" type="curve"/>
      <point x="-1105" y="353" type="line"/>
      <point x="-1105" y="308" type="line"/>
      <point x="158" y="308" type="line"/>
      <point x="148" y="296"/>
      <point x="138" y="285"/>
      <point x="128" y="273" type="curve"/>
    </contour>
    <contour>
      <point x="211" y="35" type="line"/>
      <point x="270" y="35" type="line"/>
      <point x="515" y="331" type="line"/>
      <point x="271" y="625" type="line"/>
      <point x="211" y="625" type="line"/>
      <point x="405" y="389" type="line" smooth="yes"/>
      <point x="433" y="355"/>
      <point x="451" y="336"/>
      <point x="457" y="330" type="curve"/>
      <point x="451" y="324"/>
      <point x="434" y="304"/>
      <point x="408" y="273" type="curve" smooth="yes"/>
    </contour>
  </outline>
</glyph>
<glyph name="less_equal_less.liga" format="2">
  <advance width="600"/>
  <outline>
    <contour>
      <point x="-871" y="35" type="line"/>
      <point x="-812" y="35" type="line"/>
      <point x="-946" y="195" type="line"/>
      <point x="303" y="195" type="line"/>
      <point x="435" y="35" type="line"/>
      <point x="494" y="35" type="line"/>
      <point x="250" y="330" type="line"/>
      <point x="495" y="625" type="line"/>
      <point x="436" y="625" type="line"/>
      <point x="304" y="466" type="line"/>
      <point x="-943" y="466" type="line"/>
      <point x="-811" y="625" type="line"/>
      <point x="-870" y="625" type="line"/>
      <point x="-1115" y="330" type="line"/>
    </contour>
    <contour>
      <point x="-983" y="240" type="line"/>
      <point x="-1056" y="330" type="line"/>
      <point x="-981" y="421" type="line"/>
      <point x="267" y="421" type="line"/>
      <point x="191" y="330" type="line"/>
      <point x="265" y="240" type="line"/>
    </contour>
  </outline>
</glyph>
<glyph name="less_slash.liga" format="2">
  <advance width="600"/>
  <outline>
    <contour>
      <point x="60" y="-110" type="line"/>
      <point x="114" y="-110" type="line"/>
      <point x="470" y="830" type="line"/>
      <point x="416" y="830" type="line"/>
      <point x="119" y="46" type="line"/>
      <point x="-341" y="289" type="line" smooth="yes"/>
      <point x="-369" y="304"/>
      <point x="-404" y="322"/>
      <point x="-423" y="331" type="curve"/>
      <point x="-404" y="340"/>
      <point x="-369" y="358"/>
      <point x="-341" y="373" type="curve" smooth="yes"/>
      <point x="-50" y="527" type="line"/>
      <point x="-50" y="580" type="line"/>
      <point x="-470" y="353" type="line"/>
      <point x="-470" y="307" type="line"/>
      <point x="103" y="3" type="line"/>
    </contour>
  </outline>
</glyph>
<glyph name="macroncomb.case" format="2">
  <anchor x="-300" y="730" name="_top"/>
  <anchor x="-300" y="897" name="top"/>
  <outline>
    <contour>
      <point x="-440" y="854" type="line"/>
      <point x="-160" y="854" type="line"/>
      <point x="-160" y="897" type="line"/>
      <point x="-440" y="897" type="line"/>
    </contour>
  </outline>
</glyph>
